<svg id="svg" fill="#000000" stroke="#000000" width="110" height="110" version="1.1" viewBox="137 137 526 526" xmlns="http://www.w3.org/2000/svg" stroke-width="0">
    <g id="IconSvg_bgCarrier" stroke-width="0"></g>
    <g id="IconSvg_tracerCarrier" stroke-linecap="round" stroke-linejoin="round" stroke="#CCCCCC" stroke-width="0">
    <g xmlns="http://www.w3.org/2000/svg" fill-rule="evenodd">
<path d="m355.79 298.98c-12.332-10.711-29.352-14.227-44.918-9.2773s-27.434 17.648-31.316 33.516c-3.8828 15.863 0.77734 32.605 12.297 44.188l55.309 55.324c2.293 2.3008 5.4102 3.5977 8.6602 3.5977s6.3672-1.2969 8.6602-3.5977l55.324-55.324c11.516-11.586 16.168-28.324 12.277-44.188-3.8867-15.863-15.754-28.555-31.316-33.5-15.566-4.9492-32.582-1.4297-44.914 9.2773zm46.68 51.152-46.68 46.715-46.68-46.68v-0.003906c-5.668-5.6641-7.8828-13.922-5.8125-21.66 2.0742-7.7422 8.1172-13.785 15.855-15.863 7.7383-2.0742 15.996 0.13672 21.664 5.8008l6.1719 6.1719c2.3047 2.3711 5.4688 3.7109 8.7773 3.7109s6.4727-1.3398 8.7773-3.7109l6.1719-6.1719c5.668-5.6719 13.93-7.8867 21.672-5.8125 7.7422 2.0703 13.793 8.1172 15.871 15.859 2.0742 7.7461-0.13672 16.008-5.8047 21.676z"></path>
<path d="m553.91 250.57h-24.012v-14.941c-0.007813-6.7344-5.4648-12.191-12.203-12.199h-325.91c-6.7383 0.007812-12.195 5.4648-12.203 12.199v108.64c0 30.344 7.8828 60.172 22.879 86.551 14.996 26.383 36.586 48.418 62.66 63.945h-63.34c-5.9023-0.003907-10.961 4.2188-12.012 10.027-0.64844 3.5977-0.97656 7.2422-0.97656 10.898 0.007812 16.148 6.4258 31.633 17.844 43.051 11.422 11.418 26.906 17.836 43.055 17.844h219.31c16.148-0.007812 31.633-6.4258 43.055-17.844 11.418-11.418 17.836-26.902 17.844-43.051 0-3.6562-0.32812-7.3008-0.97656-10.898-1.0508-5.8086-6.1094-10.031-12.012-10.027h-72.566c20.305-12.105 37.953-28.188 51.887-47.285 13.934-19.094 23.863-40.809 29.195-63.836h28.469c23.77 0 45.734-12.68 57.617-33.266 11.887-20.586 11.887-45.949 0-66.535-11.883-20.586-33.848-33.27-57.617-33.27zm-48.586 268.59c-0.85938 9.0391-5.0547 17.434-11.766 23.547-6.7148 6.1133-15.465 9.5078-24.543 9.5156h-219.34c-9.082-0.007812-17.832-3.4023-24.543-9.5156-6.7109-6.1133-10.906-14.508-11.766-23.547zm-141.84-24.418h-17.492c-38.398-2.25-74.484-19.082-100.88-47.055-26.398-27.977-41.109-64.98-41.129-103.44v-96.418h301.5v96.418c-0.019531 38.461-14.73 75.465-41.121 103.44-26.395 27.977-62.48 44.812-100.88 47.07zm190.43-135.52h-24.641c0.41016-4.9297 0.62891-9.918 0.62891-14.973v-69.258h23.996c15.043 0 28.949 8.0273 36.473 21.055 7.5234 13.031 7.5234 29.086 0 42.117-7.5234 13.031-21.43 21.059-36.473 21.059z"></path>
</g>

    </g>
    <g id="IconSvg_iconCarrier">
    <g xmlns="http://www.w3.org/2000/svg" fill-rule="evenodd">
<path d="m355.79 298.98c-12.332-10.711-29.352-14.227-44.918-9.2773s-27.434 17.648-31.316 33.516c-3.8828 15.863 0.77734 32.605 12.297 44.188l55.309 55.324c2.293 2.3008 5.4102 3.5977 8.6602 3.5977s6.3672-1.2969 8.6602-3.5977l55.324-55.324c11.516-11.586 16.168-28.324 12.277-44.188-3.8867-15.863-15.754-28.555-31.316-33.5-15.566-4.9492-32.582-1.4297-44.914 9.2773zm46.68 51.152-46.68 46.715-46.68-46.68v-0.003906c-5.668-5.6641-7.8828-13.922-5.8125-21.66 2.0742-7.7422 8.1172-13.785 15.855-15.863 7.7383-2.0742 15.996 0.13672 21.664 5.8008l6.1719 6.1719c2.3047 2.3711 5.4688 3.7109 8.7773 3.7109s6.4727-1.3398 8.7773-3.7109l6.1719-6.1719c5.668-5.6719 13.93-7.8867 21.672-5.8125 7.7422 2.0703 13.793 8.1172 15.871 15.859 2.0742 7.7461-0.13672 16.008-5.8047 21.676z"></path>
<path d="m553.91 250.57h-24.012v-14.941c-0.007813-6.7344-5.4648-12.191-12.203-12.199h-325.91c-6.7383 0.007812-12.195 5.4648-12.203 12.199v108.64c0 30.344 7.8828 60.172 22.879 86.551 14.996 26.383 36.586 48.418 62.66 63.945h-63.34c-5.9023-0.003907-10.961 4.2188-12.012 10.027-0.64844 3.5977-0.97656 7.2422-0.97656 10.898 0.007812 16.148 6.4258 31.633 17.844 43.051 11.422 11.418 26.906 17.836 43.055 17.844h219.31c16.148-0.007812 31.633-6.4258 43.055-17.844 11.418-11.418 17.836-26.902 17.844-43.051 0-3.6562-0.32812-7.3008-0.97656-10.898-1.0508-5.8086-6.1094-10.031-12.012-10.027h-72.566c20.305-12.105 37.953-28.188 51.887-47.285 13.934-19.094 23.863-40.809 29.195-63.836h28.469c23.77 0 45.734-12.68 57.617-33.266 11.887-20.586 11.887-45.949 0-66.535-11.883-20.586-33.848-33.27-57.617-33.27zm-48.586 268.59c-0.85938 9.0391-5.0547 17.434-11.766 23.547-6.7148 6.1133-15.465 9.5078-24.543 9.5156h-219.34c-9.082-0.007812-17.832-3.4023-24.543-9.5156-6.7109-6.1133-10.906-14.508-11.766-23.547zm-141.84-24.418h-17.492c-38.398-2.25-74.484-19.082-100.88-47.055-26.398-27.977-41.109-64.98-41.129-103.44v-96.418h301.5v96.418c-0.019531 38.461-14.73 75.465-41.121 103.44-26.395 27.977-62.48 44.812-100.88 47.07zm190.43-135.52h-24.641c0.41016-4.9297 0.62891-9.918 0.62891-14.973v-69.258h23.996c15.043 0 28.949 8.0273 36.473 21.055 7.5234 13.031 7.5234 29.086 0 42.117-7.5234 13.031-21.43 21.059-36.473 21.059z"></path>
</g>

    </g>
    </svg>